<?xml version="1.0" standalone="no"?><!DOCTYPE svg PUBLIC "-//W3C//DTD SVG 1.1//EN" "http://www.w3.org/Graphics/SVG/1.1/DTD/svg11.dtd"><svg class="icon" width="16px" height="16.00px" viewBox="0 0 1024 1024" version="1.1" xmlns="http://www.w3.org/2000/svg"><path d="M288 288v448h448V288H288z m0-32h448a32 32 0 0 1 32 32v448a32 32 0 0 1-32 32H288a32 32 0 0 1-32-32V288a32 32 0 0 1 32-32zM128 128.032V304H96V96.032h208v32H128zM128 720v175.968h176v32H96V720h32z m768-416V128.032h-176v-32H928V304h-32z m0 416h32v207.968h-208v-32H896V720z" fill="#ffffff" /></svg>