<?xml version="1.0" standalone="no"?><!DOCTYPE svg PUBLIC "-//W3C//DTD SVG 1.1//EN" "http://www.w3.org/Graphics/SVG/1.1/DTD/svg11.dtd"><svg class="icon" width="16px" height="16.00px" viewBox="0 0 1024 1024" version="1.1" xmlns="http://www.w3.org/2000/svg"><path d="M512 0C229.21216 0 0 229.21216 0 512S229.21216 1024 512 1024 1024 794.78784 1024 512 794.78784 0 512 0z m219.5456 665.1904a46.94016 46.94016 0 0 1-66.3552 66.3552l-153.1904-153.1904-153.1904 153.1904a46.94016 46.94016 0 1 1-66.3552-66.3552l153.1904-153.1904-153.1904-153.1904a46.94016 46.94016 0 1 1 66.3552-66.3552l153.1904 153.1904 153.1904-153.1904a46.94016 46.94016 0 0 1 66.3552 66.3552l-153.1904 153.1904 153.1904 153.1904z" fill="#da4a4b" /></svg>